<?xml version="1.0" encoding="UTF-8"?>
<svg width="20px" height="20px" viewBox="0 0 20 20" version="1.1" xmlns="http://www.w3.org/2000/svg" xmlns:xlink="http://www.w3.org/1999/xlink">
    <!-- Generator: Sketch 52.2 (67145) - http://www.bohemiancoding.com/sketch -->
    <title>Content / Personas / Status / Away / 20px</title>
    <desc>Created with Sketch.</desc>
    <g id="Content-/-Personas-/-Status-/-Away-/-20px" stroke="none" stroke-width="1" fill="none" fill-rule="evenodd">
        <path d="M10,-1 C11.0078744,-1 11.9835789,-0.869069061 12.9246523,-0.606861597 C13.8609627,-0.34598122 14.737571,0.0250983735 15.5522911,0.506034485 C16.3637585,0.985050465 17.1043506,1.55927766 17.7725365,2.22746353 C18.4407223,2.8956494 19.0149495,3.63624149 19.4939655,4.44770886 C19.9749016,5.26242898 20.3459812,6.1390373 20.6068616,7.07534769 C20.8690691,8.01642106 21,8.99212559 21,10 C21,11.0078744 20.8690691,11.9835789 20.6068616,12.9246523 C20.3459812,13.8609627 19.9749016,14.737571 19.4939655,15.5522911 C19.0149495,16.3637585 18.4407223,17.1043506 17.7725365,17.7725365 C17.1043506,18.4407223 16.3637585,19.0149495 15.5522911,19.4939655 C14.737571,19.9749016 13.8609627,20.3459812 12.9246523,20.6068616 C11.9835789,20.8690691 11.0078744,21 10,21 C8.99212559,21 8.01642106,20.8690691 7.07534769,20.6068616 C6.1390373,20.3459812 5.26242898,19.9749016 4.44770886,19.4939655 C3.63624149,19.0149495 2.8956494,18.4407223 2.22746353,17.7725365 C1.55927766,17.1043506 0.985050465,16.3637585 0.506034485,15.5522911 C0.0250983735,14.737571 -0.34598122,13.8609627 -0.606861597,12.9246523 C-0.869069061,11.9835789 -1,11.0078744 -1,10 C-1,8.99212559 -0.869069061,8.01642106 -0.606861597,7.07534769 C-0.34598122,6.1390373 0.0250983735,5.26242898 0.506034485,4.44770886 C0.985050465,3.63624149 1.55927766,2.8956494 2.22746353,2.22746353 C2.8956494,1.55927766 3.63624149,0.985050465 4.44770886,0.506034485 C5.26242898,0.0250983735 6.1390373,-0.34598122 7.07534769,-0.606861597 C8.01642106,-0.869069061 8.99212559,-1 10,-1 Z M9.95592253,10.0456111 C9.95553736,10.0453162 9.95487096,10.0445647 9.95404967,10.0437441 L9.95592253,10.0456111 Z M9.95592253,10.0456111 L13.0899193,13.1698463 C13.1110139,13.190941 13.1074338,13.1894531 13.1347656,13.1894531 C13.1416631,13.1894531 13.1406636,13.1896578 13.1404536,13.1897493 C13.1527704,13.1843805 13.1607424,13.1789503 13.1698463,13.1698463 C13.1789503,13.1607424 13.1843805,13.1527704 13.1897493,13.1404536 C13.1896578,13.1406636 13.1894531,13.1416631 13.1894531,13.1347656 C13.1894531,13.1074338 13.190941,13.1110139 13.1698463,13.0899193 L10.0546875,9.97476044 L10.0546875,4.44335938 C10.0546875,4.43411592 10.0539471,4.4304575 10.0513488,4.42434377 C10.0454426,4.41044698 10.0422986,4.40573089 10.0399635,4.40339584 C10.0376285,4.4010608 10.0329124,4.39791674 10.0190156,4.39201061 C10.0129019,4.38941227 10.0092435,4.38867188 10,4.38867188 C9.98510815,4.38867188 9.98281433,4.38913064 9.98454636,4.38837565 C9.97125158,4.39417081 9.96510042,4.39833189 9.96003647,4.40339584 C9.95770143,4.40573089 9.95455737,4.41044698 9.94865123,4.42434377 C9.94605289,4.4304575 9.9453125,4.43411592 9.9453125,4.44335938 L9.9453125,10 C9.9453125,10.0108112 9.94761986,10.0227806 9.95501512,10.041731 C9.95643084,10.0453587 9.95655067,10.0460921 9.95592253,10.0456111 Z" id="" stroke="#FFFFFF" stroke-width="2" fill="#FCD116"></path>
    </g>
</svg>